<svg xmlns="http://www.w3.org/2000/svg" viewBox="0 0 512 512"><title>Asset 1</title><g id="Layer_2" data-name="Layer 2"><g id="Capa_1" data-name="Capa 1"><path d="M256,0C114.84,0,0,114.84,0,256S114.84,512,256,512,512,397.16,512,256,397.16,0,256,0ZM359.54,329.37a10.66,10.66,0,0,1,0,15.09l-15.08,15.08a10.66,10.66,0,0,1-15.09,0L256,286.17l-73.37,73.37a10.66,10.66,0,0,1-15.09,0l-15.08-15.08a10.66,10.66,0,0,1,0-15.09L225.83,256l-73.37-73.38a10.65,10.65,0,0,1,0-15.08l15.08-15.08a10.66,10.66,0,0,1,15.09,0L256,225.83l73.37-73.37a10.66,10.66,0,0,1,15.09,0l15.08,15.08a10.66,10.66,0,0,1,0,15.09L286.17,256Z" fill="#adadad"/></g></g></svg>