<svg xmlns="http://www.w3.org/2000/svg" viewBox="0 0 298.73 280.03"><title>Asset 1</title><g id="Layer_2" data-name="Layer 2"><g id="Capa_1" data-name="Capa 1"><path d="M265,0H33.79A33.82,33.82,0,0,0,0,33.8V246.26A33.8,33.8,0,0,0,33.79,280H265a33.79,33.79,0,0,0,33.77-33.77V33.8A33.81,33.81,0,0,0,265,0ZM193.17,50.27a32.64,32.64,0,1,1-32.63,32.64A32.65,32.65,0,0,1,193.17,50.27ZM254.36,248.8H49c-9,0-13-6.52-9-14.57l56-110.93c4.06-8,11.79-8.76,17.27-1.6l56.32,73.59c5.47,7.16,15.05,7.77,21.38,1.36l13.78-14c6.33-6.42,15.66-5.62,20.83,1.76l35.67,51C266.49,242.81,263.38,248.8,254.36,248.8Z" fill="#467aff"/></g></g></svg>